{
  "accessors": [
    {
      "bufferView": 2,
      "componentType": 5126,
      "count": 2057,
      "max": [
        1.4813255071640015,
        6.158300399780273,
        0.9331629276275635
      ],
      "min": [
        -1.4813255071640015,
        -6.947052478790283,
        -0.36034542322158813
      ],
      "type": "VEC3"
    },
    {
      "bufferView": 2,
      "byteOffset": 24684,
      "componentType": 5126,
      "count": 2057,
      "max": [
        0.9989586472511292,
        1.0,
        1.0
      ],
      "min": [
        -0.9989586472511292,
        -1.0,
        -1.0
      ],
      "type": "VEC3"
    },
    {
      "bufferView": 1,
      "componentType": 5126,
      "count": 2057,
      "max": [
        1.238884449005127,
        0.15485791862010956
      ],
      "min": [
        -0.161228209733963,
        0.004621563944965601
      ],
      "type": "VEC2"
    },
    {
      "bufferView": 0,
      "componentType": 5125,
      "count": 3654,
      "type": "SCALAR"
    },
    {
      "bufferView": 2,
      "byteOffset": 49368,
      "componentType": 5126,
      "count": 2938,
      "max": [
        1.1601042747497559,
        5.279696941375732,
        0.9961256384849548
      ],
      "min": [
        -1.1354265213012695,
        -4.021032333374023,
        0.8574008941650391
      ],
      "type": "VEC3"
    },
    {
      "bufferView": 2,
      "byteOffset": 84624,
      "componentType": 5126,
      "count": 2938,
      "max": [
        1.0,
        1.0,
        1.0
      ],
      "min": [
        -1.0,
        -1.0,
        0.0
      ],
      "type": "VEC3"
    },
    {
      "bufferView": 1,
      "byteOffset": 16456,
      "componentType": 5126,
      "count": 2938,
      "max": [
        1.048461675643921,
        1.0028923749923706
      ],
      "min": [
        -0.03555413335561752,
        0.16237309575080872
      ],
      "type": "VEC2"
    },
    {
      "bufferView": 0,
      "byteOffset": 14616,
      "componentType": 5125,
      "count": 5268,
      "type": "SCALAR"
    }
  ],
  "asset": {
    "extras": {
      "author": "Tidominer (https://sketchfab.com/tidominer)",
      "license": "CC-BY-4.0 (http://creativecommons.org/licenses/by/4.0/)",
      "source": "https://sketchfab.com/3d-models/samsung-tv-remote-control-f1bbc61a42b94ee9a2976ca744f8962e",
      "title": "Samsung TV Remote Control"
    },
    "generator": "Sketchfab-12.68.0",
    "version": "2.0"
  },
  "bufferViews": [
    {
      "buffer": 0,
      "byteLength": 35688,
      "name": "floatBufferViews",
      "target": 34963
    },
    {
      "buffer": 0,
      "byteLength": 39960,
      "byteOffset": 35688,
      "byteStride": 8,
      "name": "floatBufferViews",
      "target": 34962
    },
    {
      "buffer": 0,
      "byteLength": 119880,
      "byteOffset": 75648,
      "byteStride": 12,
      "name": "floatBufferViews",
      "target": 34962
    }
  ],
  "buffers": [
    {
      "byteLength": 195528,
      "uri": "scene.bin"
    }
  ],
  "images": [
    {
      "uri": "textures/TVRemote_baseColor.png"
    }
  ],
  "materials": [
    {
      "doubleSided": true,
      "name": "TVRemote",
      "pbrMetallicRoughness": {
        "baseColorTexture": {
          "index": 0
        },
        "metallicFactor": 0.3543600921754252,
        "roughnessFactor": 0.4881239017687224
      }
    }
  ],
  "meshes": [
    {
      "name": "Body_TVRemote_0",
      "primitives": [
        {
          "attributes": {
            "NORMAL": 1,
            "POSITION": 0,
            "TEXCOORD_0": 2
          },
          "indices": 3,
          "material": 0,
          "mode": 4
        }
      ]
    },
    {
      "name": "Buttons_TVRemote_0",
      "primitives": [
        {
          "attributes": {
            "NORMAL": 5,
            "POSITION": 4,
            "TEXCOORD_0": 6
          },
          "indices": 7,
          "material": 0,
          "mode": 4
        }
      ]
    }
  ],
  "nodes": [
    {
      "children": [
        1
      ],
      "matrix": [
        0.0017635517287999392,
        0.0,
        0.0,
        0.0,
        0.0,
        3.9158714688623845e-19,
        -0.0017635517287999392,
        0.0,
        0.0,
        0.0017635517287999392,
        3.9158714688623845e-19,
        0.0,
        0.0,
        0.0,
        0.0,
        1.0
      ],
      "name": "Sketchfab_model"
    },
    {
      "children": [
        2
      ],
      "matrix": [
        1.0,
        0.0,
        0.0,
        0.0,
        0.0,
        0.0,
        1.0,
        0.0,
        0.0,
        -1.0,
        0.0,
        0.0,
        0.0,
        0.0,
        0.0,
        1.0
      ],
      "name": "cd612eaad7dd4e59a4d4eef756a15c9f.fbx"
    },
    {
      "children": [
        3
      ],
      "name": "RootNode"
    },
    {
      "children": [
        4,
        5
      ],
      "matrix": [
        100.0,
        0.0,
        0.0,
        0.0,
        0.0,
        -1.629206793918314e-05,
        -99.99999999999868,
        0.0,
        0.0,
        99.99999999999868,
        -1.629206793918314e-05,
        0.0,
        0.0,
        0.0,
        0.0,
        1.0
      ],
      "name": "Body"
    },
    {
      "mesh": 0,
      "name": "Body_TVRemote_0"
    },
    {
      "children": [
        6
      ],
      "matrix": [
        1.0,
        0.0,
        0.0,
        0.0,
        0.0,
        1.0,
        -2.646977960169688e-23,
        0.0,
        0.0,
        2.646977960169688e-23,
        1.0,
        0.0,
        0.0,
        -0.3997791111469269,
        1.3234889800848443e-23,
        1.0
      ],
      "name": "Buttons"
    },
    {
      "mesh": 1,
      "name": "Buttons_TVRemote_0"
    }
  ],
  "samplers": [
    {
      "magFilter": 9729,
      "minFilter": 9987,
      "wrapS": 10497,
      "wrapT": 10497
    }
  ],
  "scene": 0,
  "scenes": [
    {
      "name": "Sketchfab_Scene",
      "nodes": [
        0
      ]
    }
  ],
  "textures": [
    {
      "sampler": 0,
      "source": 0
    }
  ]
}
