{
  "accessors": [
    {
      "bufferView": 2,
      "componentType": 5126,
      "count": 1422,
      "max": [
        1.0488954782485962,
        1.1535451412200928,
        2.0217063426971436
      ],
      "min": [
        -1.0488954782485962,
        -0.21776673197746277,
        -0.05851059779524803
      ],
      "type": "VEC3"
    },
    {
      "bufferView": 2,
      "byteOffset": 17064,
      "componentType": 5126,
      "count": 1422,
      "max": [
        1.0,
        1.0,
        1.0
      ],
      "min": [
        -1.0,
        -1.0,
        -1.0
      ],
      "type": "VEC3"
    },
    {
      "bufferView": 3,
      "componentType": 5126,
      "count": 1422,
      "max": [
        1.0,
        0.9999790787696838,
        1.0,
        1.0
      ],
      "min": [
        -1.0,
        -0.9999999403953552,
        -1.0,
        1.0
      ],
      "type": "VEC4"
    },
    {
      "bufferView": 1,
      "componentType": 5126,
      "count": 1422,
      "max": [
        0.9997884035110474,
        0.9886835813522339
      ],
      "min": [
        0.011324480175971985,
        0.005967468023300171
      ],
      "type": "VEC2"
    },
    {
      "bufferView": 1,
      "byteOffset": 11376,
      "componentType": 5126,
      "count": 1422,
      "max": [
        0.9997884035110474,
        0.9886835813522339
      ],
      "min": [
        0.011324480175971985,
        0.005967468023300171
      ],
      "type": "VEC2"
    },
    {
      "bufferView": 0,
      "componentType": 5125,
      "count": 5436,
      "type": "SCALAR"
    },
    {
      "bufferView": 2,
      "byteOffset": 34128,
      "componentType": 5126,
      "count": 1422,
      "max": [
        1.0488954782485962,
        1.1535451412200928,
        2.0217063426971436
      ],
      "min": [
        -1.0488954782485962,
        -0.21776673197746277,
        -0.05851059779524803
      ],
      "type": "VEC3"
    },
    {
      "bufferView": 2,
      "byteOffset": 51192,
      "componentType": 5126,
      "count": 1422,
      "max": [
        1.0,
        1.0,
        1.0
      ],
      "min": [
        -1.0,
        -1.0,
        -1.0
      ],
      "type": "VEC3"
    },
    {
      "bufferView": 3,
      "byteOffset": 22752,
      "componentType": 5126,
      "count": 1422,
      "max": [
        1.0,
        0.9999790787696838,
        1.0,
        1.0
      ],
      "min": [
        -1.0,
        -0.9999999403953552,
        -1.0,
        1.0
      ],
      "type": "VEC4"
    },
    {
      "bufferView": 1,
      "byteOffset": 22752,
      "componentType": 5126,
      "count": 1422,
      "max": [
        0.9997884035110474,
        0.9886835813522339
      ],
      "min": [
        0.011324480175971985,
        0.005967468023300171
      ],
      "type": "VEC2"
    },
    {
      "bufferView": 1,
      "byteOffset": 34128,
      "componentType": 5126,
      "count": 1422,
      "max": [
        0.9997884035110474,
        0.9886835813522339
      ],
      "min": [
        0.011324480175971985,
        0.005967468023300171
      ],
      "type": "VEC2"
    },
    {
      "bufferView": 0,
      "byteOffset": 21744,
      "componentType": 5125,
      "count": 5436,
      "type": "SCALAR"
    },
    {
      "bufferView": 2,
      "byteOffset": 68256,
      "componentType": 5126,
      "count": 880,
      "max": [
        1.050110101699829,
        1.050112009048462,
        -0.09886807203292847
      ],
      "min": [
        -1.050110101699829,
        -1.0048096179962158,
        -1.055999994277954
      ],
      "type": "VEC3"
    },
    {
      "bufferView": 2,
      "byteOffset": 78816,
      "componentType": 5126,
      "count": 880,
      "max": [
        0.9778125882148743,
        0.9801401495933533,
        1.0
      ],
      "min": [
        -0.9778125882148743,
        -0.9694315791130066,
        -1.0
      ],
      "type": "VEC3"
    },
    {
      "bufferView": 3,
      "byteOffset": 45504,
      "componentType": 5126,
      "count": 880,
      "max": [
        0.9999213218688965,
        0.9953497052192688,
        0.5762613415718079,
        1.0
      ],
      "min": [
        -0.9999213218688965,
        -0.9953497052192688,
        -0.9777979254722595,
        1.0
      ],
      "type": "VEC4"
    },
    {
      "bufferView": 1,
      "byteOffset": 45504,
      "componentType": 5126,
      "count": 880,
      "max": [
        0.9894621968269348,
        0.9428678750991821
      ],
      "min": [
        0.0029563531279563904,
        0.011987730860710144
      ],
      "type": "VEC2"
    },
    {
      "bufferView": 1,
      "byteOffset": 52544,
      "componentType": 5126,
      "count": 880,
      "max": [
        0.9894621968269348,
        0.9428678750991821
      ],
      "min": [
        0.0029563531279563904,
        0.011987730860710144
      ],
      "type": "VEC2"
    },
    {
      "bufferView": 0,
      "byteOffset": 43488,
      "componentType": 5125,
      "count": 3534,
      "type": "SCALAR"
    },
    {
      "bufferView": 2,
      "byteOffset": 89376,
      "componentType": 5126,
      "count": 880,
      "max": [
        1.050110101699829,
        1.050112009048462,
        -0.09886807203292847
      ],
      "min": [
        -1.050110101699829,
        -1.0048096179962158,
        -1.055999994277954
      ],
      "type": "VEC3"
    },
    {
      "bufferView": 2,
      "byteOffset": 99936,
      "componentType": 5126,
      "count": 880,
      "max": [
        0.9778125882148743,
        0.9801401495933533,
        1.0
      ],
      "min": [
        -0.9778125882148743,
        -0.9694315791130066,
        -1.0
      ],
      "type": "VEC3"
    },
    {
      "bufferView": 3,
      "byteOffset": 59584,
      "componentType": 5126,
      "count": 880,
      "max": [
        0.9999213218688965,
        0.9953497052192688,
        0.5762613415718079,
        1.0
      ],
      "min": [
        -0.9999213218688965,
        -0.9953497052192688,
        -0.9777979254722595,
        1.0
      ],
      "type": "VEC4"
    },
    {
      "bufferView": 1,
      "byteOffset": 59584,
      "componentType": 5126,
      "count": 880,
      "max": [
        0.9894621968269348,
        0.9428678750991821
      ],
      "min": [
        0.0029563531279563904,
        0.011987730860710144
      ],
      "type": "VEC2"
    },
    {
      "bufferView": 1,
      "byteOffset": 66624,
      "componentType": 5126,
      "count": 880,
      "max": [
        0.9894621968269348,
        0.9428678750991821
      ],
      "min": [
        0.0029563531279563904,
        0.011987730860710144
      ],
      "type": "VEC2"
    },
    {
      "bufferView": 0,
      "byteOffset": 57624,
      "componentType": 5125,
      "count": 3534,
      "type": "SCALAR"
    }
  ],
  "asset": {
    "extras": {
      "author": "AtTheSpeedOf (https://sketchfab.com/AtTheSpeedOf)",
      "license": "CC-BY-NC-4.0 (http://creativecommons.org/licenses/by-nc/4.0/)",
      "source": "https://sketchfab.com/3d-models/pokeball-acf58793b2d84551853c7d554866708d",
      "title": "POKEBALL"
    },
    "generator": "Sketchfab-12.66.0",
    "version": "2.0"
  },
  "bufferViews": [
    {
      "buffer": 0,
      "byteLength": 71760,
      "name": "floatBufferViews",
      "target": 34963
    },
    {
      "buffer": 0,
      "byteLength": 73664,
      "byteOffset": 71760,
      "byteStride": 8,
      "name": "floatBufferViews",
      "target": 34962
    },
    {
      "buffer": 0,
      "byteLength": 110496,
      "byteOffset": 145424,
      "byteStride": 12,
      "name": "floatBufferViews",
      "target": 34962
    },
    {
      "buffer": 0,
      "byteLength": 73664,
      "byteOffset": 255920,
      "byteStride": 16,
      "name": "floatBufferViews",
      "target": 34962
    }
  ],
  "buffers": [
    {
      "byteLength": 329584,
      "uri": "scene.bin"
    }
  ],
  "images": [
    {
      "uri": "textures/pokeball_baseColor.png"
    },
    {
      "uri": "textures/pokeball_metallicRoughness.png"
    },
    {
      "uri": "textures/pokeball_emissive.png"
    },
    {
      "uri": "textures/pokeball_normal.png"
    }
  ],
  "materials": [
    {
      "emissiveFactor": [
        1.0,
        1.0,
        1.0
      ],
      "emissiveTexture": {
        "index": 2
      },
      "name": "pokeball",
      "normalTexture": {
        "index": 3
      },
      "pbrMetallicRoughness": {
        "baseColorTexture": {
          "index": 0
        },
        "metallicRoughnessTexture": {
          "index": 1
        },
        "roughnessFactor": 0.6766421826451255
      }
    }
  ],
  "meshes": [
    {
      "name": "button_low.001_pokeball_0",
      "primitives": [
        {
          "attributes": {
            "NORMAL": 1,
            "POSITION": 0,
            "TANGENT": 2,
            "TEXCOORD_0": 3,
            "TEXCOORD_1": 4
          },
          "indices": 5,
          "material": 0,
          "mode": 4
        }
      ]
    },
    {
      "name": "button_low.010_pokeball_0",
      "primitives": [
        {
          "attributes": {
            "NORMAL": 7,
            "POSITION": 6,
            "TANGENT": 8,
            "TEXCOORD_0": 9,
            "TEXCOORD_1": 10
          },
          "indices": 11,
          "material": 0,
          "mode": 4
        }
      ]
    },
    {
      "name": "bottom_low.001_pokeball_0",
      "primitives": [
        {
          "attributes": {
            "NORMAL": 13,
            "POSITION": 12,
            "TANGENT": 14,
            "TEXCOORD_0": 15,
            "TEXCOORD_1": 16
          },
          "indices": 17,
          "material": 0,
          "mode": 4
        }
      ]
    },
    {
      "name": "bottom_low.010_pokeball_0",
      "primitives": [
        {
          "attributes": {
            "NORMAL": 19,
            "POSITION": 18,
            "TANGENT": 20,
            "TEXCOORD_0": 21,
            "TEXCOORD_1": 22
          },
          "indices": 23,
          "material": 0,
          "mode": 4
        }
      ]
    }
  ],
  "nodes": [
    {
      "children": [
        1
      ],
      "matrix": [
        1.0,
        0.0,
        0.0,
        0.0,
        0.0,
        2.220446049250313e-16,
        -1.0,
        0.0,
        0.0,
        1.0,
        2.220446049250313e-16,
        0.0,
        0.0,
        0.0,
        0.0,
        1.0
      ],
      "name": "Sketchfab_model"
    },
    {
      "children": [
        2
      ],
      "matrix": [
        0.009999999776482582,
        0.0,
        0.0,
        0.0,
        0.0,
        0.0,
        0.009999999776482582,
        0.0,
        0.0,
        -0.009999999776482582,
        0.0,
        0.0,
        0.0,
        0.0,
        0.0,
        1.0
      ],
      "name": "80eebd97aa4545a5a829e748583d7acc.fbx"
    },
    {
      "children": [
        3,
        5,
        7,
        9
      ],
      "name": "RootNode"
    },
    {
      "children": [
        4
      ],
      "matrix": [
        100.0,
        0.0,
        0.0,
        0.0,
        0.0,
        99.9999999999999,
        4.371138828673792e-06,
        0.0,
        0.0,
        -4.371138828673792e-06,
        99.9999999999999,
        0.0,
        400.0,
        -9.754514694213867,
        -99.03926849365234,
        1.0
      ],
      "name": "button_low.001"
    },
    {
      "mesh": 0,
      "name": "button_low.001_pokeball_0"
    },
    {
      "children": [
        6
      ],
      "matrix": [
        100.0,
        0.0,
        0.0,
        0.0,
        0.0,
        -1.629206793918314e-05,
        -99.99999999999868,
        0.0,
        0.0,
        99.99999999999868,
        -1.629206793918314e-05,
        0.0,
        670.0,
        -9.754514694213867,
        -99.03926849365234,
        1.0
      ],
      "name": "button_low.010"
    },
    {
      "mesh": 1,
      "name": "button_low.010_pokeball_0"
    },
    {
      "children": [
        8
      ],
      "matrix": [
        100.0,
        0.0,
        0.0,
        0.0,
        0.0,
        -1.629206793918314e-05,
        -99.99999999999868,
        0.0,
        0.0,
        99.99999999999868,
        -1.629206793918314e-05,
        0.0,
        400.0,
        0.0,
        0.0,
        1.0
      ],
      "name": "bottom_low.001"
    },
    {
      "mesh": 2,
      "name": "bottom_low.001_pokeball_0"
    },
    {
      "children": [
        10
      ],
      "matrix": [
        100.0,
        0.0,
        0.0,
        0.0,
        0.0,
        -1.629206793918314e-05,
        -99.99999999999868,
        0.0,
        0.0,
        99.99999999999868,
        -1.629206793918314e-05,
        0.0,
        670.0,
        0.0,
        0.0,
        1.0
      ],
      "name": "bottom_low.010"
    },
    {
      "mesh": 3,
      "name": "bottom_low.010_pokeball_0"
    }
  ],
  "samplers": [
    {
      "magFilter": 9729,
      "minFilter": 9987,
      "wrapS": 10497,
      "wrapT": 10497
    }
  ],
  "scene": 0,
  "scenes": [
    {
      "name": "Sketchfab_Scene",
      "nodes": [
        0
      ]
    }
  ],
  "textures": [
    {
      "sampler": 0,
      "source": 0
    },
    {
      "sampler": 0,
      "source": 1
    },
    {
      "sampler": 0,
      "source": 2
    },
    {
      "sampler": 0,
      "source": 3
    }
  ]
}
