{
  "accessors": [
    {
      "bufferView": 2,
      "componentType": 5126,
      "count": 4,
      "max": [
        167.02890014648438,
        167.02890014648438,
        0.0
      ],
      "min": [
        -167.02890014648438,
        -167.02890014648438,
        0.0
      ],
      "type": "VEC3"
    },
    {
      "bufferView": 2,
      "byteOffset": 48,
      "componentType": 5126,
      "count": 4,
      "max": [
        0.0,
        0.0,
        1.0
      ],
      "min": [
        0.0,
        0.0,
        1.0
      ],
      "type": "VEC3"
    },
    {
      "bufferView": 1,
      "componentType": 5126,
      "count": 4,
      "max": [
        1.0,
        1.0
      ],
      "min": [
        2.9802322387695313e-08,
        2.9802322387695313e-08
      ],
      "type": "VEC2"
    },
    {
      "bufferView": 0,
      "componentType": 5125,
      "count": 6,
      "type": "SCALAR"
    },
    {
      "bufferView": 2,
      "byteOffset": 96,
      "componentType": 5126,
      "count": 1680,
      "max": [
        63.5,
        40.25368881225586,
        81.5
      ],
      "min": [
        -27.330581665039063,
        -1.52587890625e-05,
        -81.5
      ],
      "type": "VEC3"
    },
    {
      "bufferView": 2,
      "byteOffset": 20256,
      "componentType": 5126,
      "count": 1680,
      "max": [
        1.0,
        1.0,
        1.0
      ],
      "min": [
        -1.0,
        -1.0,
        -1.0
      ],
      "type": "VEC3"
    },
    {
      "bufferView": 1,
      "byteOffset": 32,
      "componentType": 5126,
      "count": 1680,
      "max": [
        1.0438868999481201,
        1.174884557723999
      ],
      "min": [
        -0.04388689994812012,
        -0.2608013153076172
      ],
      "type": "VEC2"
    },
    {
      "bufferView": 1,
      "byteOffset": 13472,
      "componentType": 5126,
      "count": 1680,
      "max": [
        0.999500036239624,
        0.9986706376075745
      ],
      "min": [
        0.0005000000237487257,
        0.0005000000237487257
      ],
      "type": "VEC2"
    },
    {
      "bufferView": 1,
      "byteOffset": 26912,
      "componentType": 5126,
      "count": 1680,
      "max": [
        0.999500036239624,
        0.9986706376075745
      ],
      "min": [
        0.0005000000237487257,
        0.0005000000237487257
      ],
      "type": "VEC2"
    },
    {
      "bufferView": 0,
      "byteOffset": 24,
      "componentType": 5125,
      "count": 4536,
      "type": "SCALAR"
    },
    {
      "bufferView": 2,
      "byteOffset": 40416,
      "componentType": 5126,
      "count": 4648,
      "max": [
        41.55055618286133,
        40.126861572265625,
        79.68641662597656
      ],
      "min": [
        -13.845681190490723,
        0.1268463134765625,
        -77.80415344238281
      ],
      "type": "VEC3"
    },
    {
      "bufferView": 2,
      "byteOffset": 96192,
      "componentType": 5126,
      "count": 4648,
      "max": [
        1.0,
        1.0,
        1.0
      ],
      "min": [
        -1.0,
        -1.0,
        -1.0
      ],
      "type": "VEC3"
    },
    {
      "bufferView": 1,
      "byteOffset": 40352,
      "componentType": 5126,
      "count": 4648,
      "max": [
        1.027564525604248,
        1.0291799306869507
      ],
      "min": [
        -0.029284542426466942,
        -0.032773520797491074
      ],
      "type": "VEC2"
    },
    {
      "bufferView": 1,
      "byteOffset": 77536,
      "componentType": 5126,
      "count": 4648,
      "max": [
        0.9988707900047302,
        0.9899724721908569
      ],
      "min": [
        0.0005000000237487257,
        0.0050170025788247585
      ],
      "type": "VEC2"
    },
    {
      "bufferView": 0,
      "byteOffset": 18168,
      "componentType": 5125,
      "count": 8964,
      "type": "SCALAR"
    },
    {
      "bufferView": 2,
      "byteOffset": 151968,
      "componentType": 5126,
      "count": 4018,
      "max": [
        40.061988830566406,
        36.08961486816406,
        77.23563385009766
      ],
      "min": [
        -13.818425178527832,
        4.164092063903809,
        -46.26837158203125
      ],
      "type": "VEC3"
    },
    {
      "bufferView": 2,
      "byteOffset": 200184,
      "componentType": 5126,
      "count": 4018,
      "max": [
        1.0,
        0.9848079085350037,
        0.9848107099533081
      ],
      "min": [
        -1.0,
        -0.9848101735115051,
        -0.9848117232322693
      ],
      "type": "VEC3"
    },
    {
      "bufferView": 1,
      "byteOffset": 114720,
      "componentType": 5126,
      "count": 4018,
      "max": [
        0.9992567300796509,
        0.9762845039367676
      ],
      "min": [
        0.2263500839471817,
        0.00953400507569313
      ],
      "type": "VEC2"
    },
    {
      "bufferView": 1,
      "byteOffset": 146864,
      "componentType": 5126,
      "count": 4018,
      "max": [
        1.0815967321395874,
        1.0
      ],
      "min": [
        -0.08263500779867172,
        0.0
      ],
      "type": "VEC2"
    },
    {
      "bufferView": 0,
      "byteOffset": 54024,
      "componentType": 5125,
      "count": 8748,
      "type": "SCALAR"
    }
  ],
  "asset": {
    "extras": {
      "author": "MADE.COM (https://sketchfab.com/made-it)",
      "license": "CC-BY-NC-4.0 (http://creativecommons.org/licenses/by-nc/4.0/)",
      "source": "https://sketchfab.com/3d-models/kya-extending-shelves-oak-and-grey-b5ca493210654546be8fef5dd49d0ae6",
      "title": "Kya Extending Shelves, Oak And Grey"
    },
    "generator": "Sketchfab-12.68.0",
    "version": "2.0"
  },
  "bufferViews": [
    {
      "buffer": 0,
      "byteLength": 89016,
      "name": "floatBufferViews",
      "target": 34963
    },
    {
      "buffer": 0,
      "byteLength": 179008,
      "byteOffset": 89016,
      "byteStride": 8,
      "name": "floatBufferViews",
      "target": 34962
    },
    {
      "buffer": 0,
      "byteLength": 248400,
      "byteOffset": 268024,
      "byteStride": 12,
      "name": "floatBufferViews",
      "target": 34962
    }
  ],
  "buffers": [
    {
      "byteLength": 516424,
      "uri": "scene.bin"
    }
  ],
  "images": [
    {
      "uri": "textures/FLOOR_baseColor.png"
    },
    {
      "uri": "textures/WOOD_baseColor.jpeg"
    },
    {
      "uri": "textures/WOOD_metallicRoughness.png"
    },
    {
      "uri": "textures/METAL_metallicRoughness.png"
    }
  ],
  "materials": [
    {
      "alphaMode": "BLEND",
      "doubleSided": true,
      "name": "FLOOR",
      "pbrMetallicRoughness": {
        "baseColorFactor": [
          0.0,
          0.0,
          0.0,
          1.0
        ],
        "baseColorTexture": {
          "index": 0
        },
        "metallicFactor": 0.0
      }
    },
    {
      "doubleSided": true,
      "name": "WOOD",
      "occlusionTexture": {
        "index": 2,
        "strength": 0.751714939
      },
      "pbrMetallicRoughness": {
        "baseColorTexture": {
          "index": 1
        },
        "metallicFactor": 0.0,
        "metallicRoughnessTexture": {
          "index": 2
        },
        "roughnessFactor": 0.3980564024
      }
    },
    {
      "doubleSided": true,
      "name": "GREY",
      "occlusionTexture": {
        "index": 2
      },
      "pbrMetallicRoughness": {
        "baseColorFactor": [
          0.0392157,
          0.0392157,
          0.0392157,
          1.0
        ],
        "metallicFactor": 0.0,
        "metallicRoughnessTexture": {
          "index": 2
        },
        "roughnessFactor": 0.2761051829
      }
    },
    {
      "doubleSided": true,
      "name": "METAL",
      "occlusionTexture": {
        "index": 3
      },
      "pbrMetallicRoughness": {
        "baseColorFactor": [
          0.3471510851,
          0.3471510851,
          0.3471510851,
          1.0
        ],
        "metallicRoughnessTexture": {
          "index": 3
        },
        "roughnessFactor": 0.1480564024
      }
    }
  ],
  "meshes": [
    {
      "name": "Plane001_FLOOR_0",
      "primitives": [
        {
          "attributes": {
            "NORMAL": 1,
            "POSITION": 0,
            "TEXCOORD_0": 2
          },
          "indices": 3,
          "material": 0,
          "mode": 4
        }
      ]
    },
    {
      "name": "Plane002_WOOD_0",
      "primitives": [
        {
          "attributes": {
            "NORMAL": 5,
            "POSITION": 4,
            "TEXCOORD_0": 6,
            "TEXCOORD_1": 7,
            "TEXCOORD_2": 8
          },
          "indices": 9,
          "material": 1,
          "mode": 4
        }
      ]
    },
    {
      "name": "Plane002_GREY_0",
      "primitives": [
        {
          "attributes": {
            "NORMAL": 11,
            "POSITION": 10,
            "TEXCOORD_0": 12,
            "TEXCOORD_1": 13
          },
          "indices": 14,
          "material": 2,
          "mode": 4
        }
      ]
    },
    {
      "name": "Plane002_METAL_0",
      "primitives": [
        {
          "attributes": {
            "NORMAL": 16,
            "POSITION": 15,
            "TEXCOORD_0": 17,
            "TEXCOORD_1": 18
          },
          "indices": 19,
          "material": 3,
          "mode": 4
        }
      ]
    }
  ],
  "nodes": [
    {
      "children": [
        1
      ],
      "matrix": [
        1.0,
        0.0,
        0.0,
        0.0,
        0.0,
        2.220446049250313e-16,
        -1.0,
        0.0,
        0.0,
        1.0,
        2.220446049250313e-16,
        0.0,
        0.0,
        0.0,
        0.0,
        1.0
      ],
      "name": "Sketchfab_model"
    },
    {
      "children": [
        2
      ],
      "matrix": [
        1.0,
        0.0,
        0.0,
        0.0,
        0.0,
        0.0,
        1.0,
        0.0,
        0.0,
        -1.0,
        0.0,
        0.0,
        0.0,
        0.0,
        0.0,
        1.0
      ],
      "name": "8ac9add0c58e4025908ca019a49be100.fbx"
    },
    {
      "children": [
        3,
        5
      ],
      "name": "RootNode"
    },
    {
      "children": [
        4
      ],
      "matrix": [
        1.0,
        0.0,
        0.0,
        0.0,
        0.0,
        2.220446049250313e-16,
        -1.0,
        0.0,
        0.0,
        1.0,
        2.220446049250313e-16,
        0.0,
        0.0,
        0.0,
        0.0,
        1.0
      ],
      "name": "Plane001"
    },
    {
      "mesh": 0,
      "name": "Plane001_FLOOR_0"
    },
    {
      "children": [
        6
      ],
      "matrix": [
        1.0,
        0.0,
        0.0,
        0.0,
        0.0,
        2.220446049250313e-16,
        -1.0,
        0.0,
        0.0,
        1.0,
        2.220446049250313e-16,
        0.0,
        0.0,
        0.10000000149011612,
        0.0,
        1.0
      ],
      "name": "Plane002"
    },
    {
      "children": [
        7,
        8,
        9
      ],
      "matrix": [
        1.0,
        0.0,
        -0.0,
        0.0,
        0.0,
        1.0,
        0.0,
        0.0,
        0.0,
        0.0,
        1.0,
        0.0,
        -18.08470916748047,
        -20.126840591430664,
        81.30000305175781,
        1.0
      ],
      "name": "Object_6"
    },
    {
      "mesh": 1,
      "name": "Plane002_WOOD_0"
    },
    {
      "mesh": 2,
      "name": "Plane002_GREY_0"
    },
    {
      "mesh": 3,
      "name": "Plane002_METAL_0"
    }
  ],
  "samplers": [
    {
      "magFilter": 9729,
      "minFilter": 9987,
      "wrapS": 10497,
      "wrapT": 10497
    }
  ],
  "scene": 0,
  "scenes": [
    {
      "name": "Sketchfab_Scene",
      "nodes": [
        0
      ]
    }
  ],
  "textures": [
    {
      "sampler": 0,
      "source": 0
    },
    {
      "sampler": 0,
      "source": 1
    },
    {
      "sampler": 0,
      "source": 2
    },
    {
      "sampler": 0,
      "source": 3
    }
  ]
}
