{
  "accessors": [
    {
      "bufferView": 1,
      "componentType": 5126,
      "count": 703,
      "max": [
        1.1158626079559326,
        -0.946547269821167,
        1.8581269979476929
      ],
      "min": [
        -1.1655259132385254,
        -1.210428237915039,
        1.313938856124878
      ],
      "type": "VEC3"
    },
    {
      "bufferView": 1,
      "byteOffset": 8436,
      "componentType": 5126,
      "count": 703,
      "max": [
        0.9972031116485596,
        0.9997391104698181,
        0.9938362240791321
      ],
      "min": [
        -0.9995373487472534,
        -0.9998021721839905,
        -0.9763646125793457
      ],
      "type": "VEC3"
    },
    {
      "bufferView": 2,
      "componentType": 5126,
      "count": 703,
      "max": [
        0.003921568859368563,
        0.5490196347236633,
        0.7529411911964417,
        1.0
      ],
      "min": [
        0.0,
        0.545098066329956,
        0.7490196228027344,
        1.0
      ],
      "type": "VEC4"
    },
    {
      "bufferView": 0,
      "componentType": 5125,
      "count": 4092,
      "type": "SCALAR"
    },
    {
      "bufferView": 1,
      "byteOffset": 16872,
      "componentType": 5126,
      "count": 19254,
      "max": [
        2.156008720397949,
        1.7787238359451294,
        0.25145623087882996
      ],
      "min": [
        -0.08108528703451157,
        0.7314543724060059,
        -0.9232747554779053
      ],
      "type": "VEC3"
    },
    {
      "bufferView": 1,
      "byteOffset": 247920,
      "componentType": 5126,
      "count": 19254,
      "max": [
        0.9999008178710938,
        0.9998560547828674,
        0.9999669194221497
      ],
      "min": [
        -0.9991139769554138,
        -0.999993085861206,
        -0.9999736547470093
      ],
      "type": "VEC3"
    },
    {
      "bufferView": 2,
      "byteOffset": 11248,
      "componentType": 5126,
      "count": 19254,
      "max": [
        1.0,
        1.0,
        1.0,
        1.0
      ],
      "min": [
        0.9960784316062927,
        0.9960784316062927,
        0.9960784316062927,
        1.0
      ],
      "type": "VEC4"
    },
    {
      "bufferView": 0,
      "byteOffset": 16368,
      "componentType": 5125,
      "count": 114912,
      "type": "SCALAR"
    },
    {
      "bufferView": 1,
      "byteOffset": 478968,
      "componentType": 5126,
      "count": 25666,
      "max": [
        4.451144218444824,
        0.6856856942176819,
        2.542994499206543
      ],
      "min": [
        -4.451145172119141,
        -0.9913033246994019,
        0.7849565148353577
      ],
      "type": "VEC3"
    },
    {
      "bufferView": 1,
      "byteOffset": 786960,
      "componentType": 5126,
      "count": 25666,
      "max": [
        0.9999576807022095,
        0.9999938607215881,
        0.9999620318412781
      ],
      "min": [
        -0.9999662637710571,
        -0.9998909831047058,
        -0.9999162554740906
      ],
      "type": "VEC3"
    },
    {
      "bufferView": 2,
      "byteOffset": 319312,
      "componentType": 5126,
      "count": 25666,
      "max": [
        1.0,
        1.0,
        1.0,
        1.0
      ],
      "min": [
        1.0,
        1.0,
        1.0,
        1.0
      ],
      "type": "VEC4"
    },
    {
      "bufferView": 0,
      "byteOffset": 476016,
      "componentType": 5125,
      "count": 153972,
      "type": "SCALAR"
    },
    {
      "bufferView": 1,
      "byteOffset": 1094952,
      "componentType": 5126,
      "count": 1589,
      "max": [
        -0.34420132637023926,
        0.2955358922481537,
        0.8000403642654419
      ],
      "min": [
        -1.5813616514205933,
        -0.3349131941795349,
        0.05067595839500427
      ],
      "type": "VEC3"
    },
    {
      "bufferView": 1,
      "byteOffset": 1114020,
      "componentType": 5126,
      "count": 1589,
      "max": [
        0.9943351149559021,
        0.9999363422393799,
        0.9985033273696899
      ],
      "min": [
        -0.9940530061721802,
        -0.9999982714653015,
        -0.9979100227355957
      ],
      "type": "VEC3"
    },
    {
      "bufferView": 2,
      "byteOffset": 729968,
      "componentType": 5126,
      "count": 1589,
      "max": [
        1.0,
        1.0,
        1.0,
        1.0
      ],
      "min": [
        1.0,
        1.0,
        1.0,
        1.0
      ],
      "type": "VEC4"
    },
    {
      "bufferView": 0,
      "byteOffset": 1091904,
      "componentType": 5125,
      "count": 9522,
      "type": "SCALAR"
    },
    {
      "bufferView": 1,
      "byteOffset": 1133088,
      "componentType": 5126,
      "count": 1057,
      "max": [
        -0.8500629663467407,
        -0.033242251724004745,
        -0.20755529403686523
      ],
      "min": [
        -1.4327056407928467,
        -0.6875254511833191,
        -0.9979130029678345
      ],
      "type": "VEC3"
    },
    {
      "bufferView": 1,
      "byteOffset": 1145772,
      "componentType": 5126,
      "count": 1057,
      "max": [
        0.9988976716995239,
        0.9997913837432861,
        0.9984317421913147
      ],
      "min": [
        -0.9997482299804688,
        -0.9973462224006653,
        -0.9998945593833923
      ],
      "type": "VEC3"
    },
    {
      "bufferView": 2,
      "byteOffset": 755392,
      "componentType": 5126,
      "count": 1057,
      "max": [
        1.0,
        1.0,
        1.0,
        1.0
      ],
      "min": [
        1.0,
        1.0,
        1.0,
        1.0
      ],
      "type": "VEC4"
    },
    {
      "bufferView": 0,
      "byteOffset": 1129992,
      "componentType": 5125,
      "count": 6330,
      "type": "SCALAR"
    },
    {
      "bufferView": 1,
      "byteOffset": 1158456,
      "componentType": 5126,
      "count": 1298,
      "max": [
        1.1264050006866455,
        0.35638153553009033,
        -0.35575467348098755
      ],
      "min": [
        0.4144706130027771,
        -0.33117473125457764,
        -1.2810914516448975
      ],
      "type": "VEC3"
    },
    {
      "bufferView": 1,
      "byteOffset": 1174032,
      "componentType": 5126,
      "count": 1298,
      "max": [
        0.9939522743225098,
        0.9992930293083191,
        0.9934746623039246
      ],
      "min": [
        -0.9981067180633545,
        -0.999186098575592,
        -0.9965679049491882
      ],
      "type": "VEC3"
    },
    {
      "bufferView": 2,
      "byteOffset": 772304,
      "componentType": 5126,
      "count": 1298,
      "max": [
        1.0,
        1.0,
        1.0,
        1.0
      ],
      "min": [
        1.0,
        1.0,
        1.0,
        1.0
      ],
      "type": "VEC4"
    },
    {
      "bufferView": 0,
      "byteOffset": 1155312,
      "componentType": 5125,
      "count": 7776,
      "type": "SCALAR"
    },
    {
      "bufferView": 1,
      "byteOffset": 1189608,
      "componentType": 5126,
      "count": 1919,
      "max": [
        1.513667106628418,
        0.17209702730178833,
        0.9161875247955322
      ],
      "min": [
        0.6675950288772583,
        -1.0207041501998901,
        -0.05165442079305649
      ],
      "type": "VEC3"
    },
    {
      "bufferView": 1,
      "byteOffset": 1212636,
      "componentType": 5126,
      "count": 1919,
      "max": [
        0.9995483160018921,
        0.9972912669181824,
        0.9995688199996948
      ],
      "min": [
        -0.9978506565093994,
        -0.9981474280357361,
        -0.9997425675392151
      ],
      "type": "VEC3"
    },
    {
      "bufferView": 2,
      "byteOffset": 793072,
      "componentType": 5126,
      "count": 1919,
      "max": [
        1.0,
        1.0,
        1.0,
        1.0
      ],
      "min": [
        1.0,
        1.0,
        1.0,
        1.0
      ],
      "type": "VEC4"
    },
    {
      "bufferView": 0,
      "byteOffset": 1186416,
      "componentType": 5125,
      "count": 11502,
      "type": "SCALAR"
    },
    {
      "bufferView": 1,
      "byteOffset": 1235664,
      "componentType": 5126,
      "count": 13728,
      "max": [
        1.915961742401123,
        1.3305690288543701,
        2.8422775268554688
      ],
      "min": [
        -1.9159913063049316,
        -1.320723533630371,
        0.4688049852848053
      ],
      "type": "VEC3"
    },
    {
      "bufferView": 1,
      "byteOffset": 1400400,
      "componentType": 5126,
      "count": 13728,
      "max": [
        0.9993966817855835,
        0.9996736645698547,
        0.9997119307518005
      ],
      "min": [
        -0.999366044998169,
        -0.9998862147331238,
        -0.9999922513961792
      ],
      "type": "VEC3"
    },
    {
      "bufferView": 2,
      "byteOffset": 823776,
      "componentType": 5126,
      "count": 13728,
      "max": [
        1.0,
        1.0,
        1.0,
        1.0
      ],
      "min": [
        0.41960784792900085,
        0.19607843458652496,
        0.11764705926179886,
        1.0
      ],
      "type": "VEC4"
    },
    {
      "bufferView": 0,
      "byteOffset": 1232424,
      "componentType": 5125,
      "count": 82356,
      "type": "SCALAR"
    },
    {
      "bufferView": 1,
      "byteOffset": 1565136,
      "componentType": 5126,
      "count": 10984,
      "max": [
        1.2235990762710571,
        0.9547856450080872,
        0.9997425675392151
      ],
      "min": [
        -1.2236254215240479,
        -0.9548019170761108,
        -0.9997239708900452
      ],
      "type": "VEC3"
    },
    {
      "bufferView": 1,
      "byteOffset": 1696944,
      "componentType": 5126,
      "count": 10984,
      "max": [
        0.9998309016227722,
        0.9999486207962036,
        0.9997450113296509
      ],
      "min": [
        -0.9998632073402405,
        -0.9999366998672485,
        -0.9999071955680847
      ],
      "type": "VEC3"
    },
    {
      "bufferView": 2,
      "byteOffset": 1043424,
      "componentType": 5126,
      "count": 10984,
      "max": [
        1.0,
        1.0,
        1.0,
        1.0
      ],
      "min": [
        1.0,
        1.0,
        1.0,
        1.0
      ],
      "type": "VEC4"
    },
    {
      "bufferView": 0,
      "byteOffset": 1561848,
      "componentType": 5125,
      "count": 65892,
      "type": "SCALAR"
    }
  ],
  "asset": {
    "extras": {
      "author": "jiayingc (https://sketchfab.com/jiayingc)",
      "license": "CC-BY-4.0 (http://creativecommons.org/licenses/by/4.0/)",
      "source": "https://sketchfab.com/3d-models/cinnamoroll-b688fe0758d7477eade4bcafc61d0eb7",
      "title": "Cinnamoroll"
    },
    "generator": "Sketchfab-12.66.0",
    "version": "2.0"
  },
  "bufferViews": [
    {
      "buffer": 0,
      "byteLength": 1825416,
      "name": "floatBufferViews",
      "target": 34963
    },
    {
      "buffer": 0,
      "byteLength": 1828752,
      "byteOffset": 1825416,
      "byteStride": 12,
      "name": "floatBufferViews",
      "target": 34962
    },
    {
      "buffer": 0,
      "byteLength": 1219168,
      "byteOffset": 3654168,
      "byteStride": 16,
      "name": "floatBufferViews",
      "target": 34962
    }
  ],
  "buffers": [
    {
      "byteLength": 4873336,
      "uri": "scene.bin"
    }
  ],
  "materials": [
    {
      "doubleSided": true,
      "name": "material_0",
      "pbrMetallicRoughness": {
        "metallicFactor": 0.0,
        "roughnessFactor": 0.6
      }
    },
    {
      "doubleSided": true,
      "name": "material_1",
      "pbrMetallicRoughness": {
        "metallicFactor": 0.0,
        "roughnessFactor": 0.6
      }
    },
    {
      "doubleSided": true,
      "name": "material_2",
      "pbrMetallicRoughness": {
        "metallicFactor": 0.0,
        "roughnessFactor": 0.6
      }
    },
    {
      "doubleSided": true,
      "name": "material_3",
      "pbrMetallicRoughness": {
        "metallicFactor": 0.0,
        "roughnessFactor": 0.6
      }
    },
    {
      "doubleSided": true,
      "name": "material_4",
      "pbrMetallicRoughness": {
        "metallicFactor": 0.0,
        "roughnessFactor": 0.6
      }
    },
    {
      "doubleSided": true,
      "name": "material_5",
      "pbrMetallicRoughness": {
        "metallicFactor": 0.0,
        "roughnessFactor": 0.6
      }
    },
    {
      "doubleSided": true,
      "name": "material_6",
      "pbrMetallicRoughness": {
        "metallicFactor": 0.0,
        "roughnessFactor": 0.6
      }
    },
    {
      "doubleSided": true,
      "name": "material_7",
      "pbrMetallicRoughness": {
        "metallicFactor": 0.0,
        "roughnessFactor": 0.6
      }
    },
    {
      "doubleSided": true,
      "name": "material_8",
      "pbrMetallicRoughness": {
        "metallicFactor": 0.0,
        "roughnessFactor": 0.6
      }
    }
  ],
  "meshes": [
    {
      "name": "Object_0",
      "primitives": [
        {
          "attributes": {
            "COLOR_0": 2,
            "NORMAL": 1,
            "POSITION": 0
          },
          "indices": 3,
          "material": 8,
          "mode": 4
        }
      ]
    },
    {
      "name": "Object_1",
      "primitives": [
        {
          "attributes": {
            "COLOR_0": 6,
            "NORMAL": 5,
            "POSITION": 4
          },
          "indices": 7,
          "material": 7,
          "mode": 4
        }
      ]
    },
    {
      "name": "Object_2",
      "primitives": [
        {
          "attributes": {
            "COLOR_0": 10,
            "NORMAL": 9,
            "POSITION": 8
          },
          "indices": 11,
          "material": 6,
          "mode": 4
        }
      ]
    },
    {
      "name": "Object_3",
      "primitives": [
        {
          "attributes": {
            "COLOR_0": 14,
            "NORMAL": 13,
            "POSITION": 12
          },
          "indices": 15,
          "material": 5,
          "mode": 4
        }
      ]
    },
    {
      "name": "Object_4",
      "primitives": [
        {
          "attributes": {
            "COLOR_0": 18,
            "NORMAL": 17,
            "POSITION": 16
          },
          "indices": 19,
          "material": 4,
          "mode": 4
        }
      ]
    },
    {
      "name": "Object_5",
      "primitives": [
        {
          "attributes": {
            "COLOR_0": 22,
            "NORMAL": 21,
            "POSITION": 20
          },
          "indices": 23,
          "material": 3,
          "mode": 4
        }
      ]
    },
    {
      "name": "Object_6",
      "primitives": [
        {
          "attributes": {
            "COLOR_0": 26,
            "NORMAL": 25,
            "POSITION": 24
          },
          "indices": 27,
          "material": 2,
          "mode": 4
        }
      ]
    },
    {
      "name": "Object_7",
      "primitives": [
        {
          "attributes": {
            "COLOR_0": 30,
            "NORMAL": 29,
            "POSITION": 28
          },
          "indices": 31,
          "material": 1,
          "mode": 4
        }
      ]
    },
    {
      "name": "Object_8",
      "primitives": [
        {
          "attributes": {
            "COLOR_0": 34,
            "NORMAL": 33,
            "POSITION": 32
          },
          "indices": 35,
          "material": 0,
          "mode": 4
        }
      ]
    }
  ],
  "nodes": [
    {
      "children": [
        1
      ],
      "matrix": [
        1.0,
        0.0,
        0.0,
        0.0,
        0.0,
        2.220446049250313e-16,
        -1.0,
        0.0,
        0.0,
        1.0,
        2.220446049250313e-16,
        0.0,
        0.0,
        0.0,
        0.0,
        1.0
      ],
      "name": "Sketchfab_model"
    },
    {
      "children": [
        2,
        4,
        6,
        8,
        10,
        12,
        14,
        16,
        18
      ],
      "name": "zbrush_concat.osgb.cleaner.materialmerger.gles"
    },
    {
      "children": [
        3
      ],
      "name": "/sketchfab-data/processing/models/ca9c3c1a78cc428db619ac1a094442be/b688fe0758d7477eade4bcafc61d0eb7/af88de68c1364cabb549e8fb28e69017/preprocess/SubTool-9-2424889.OBJ"
    },
    {
      "mesh": 0,
      "name": "Object_3"
    },
    {
      "children": [
        5
      ],
      "name": "/sketchfab-data/processing/models/ca9c3c1a78cc428db619ac1a094442be/b688fe0758d7477eade4bcafc61d0eb7/af88de68c1364cabb549e8fb28e69017/preprocess/SubTool-7-1778379.OBJ"
    },
    {
      "mesh": 1,
      "name": "Object_5"
    },
    {
      "children": [
        7
      ],
      "name": "/sketchfab-data/processing/models/ca9c3c1a78cc428db619ac1a094442be/b688fe0758d7477eade4bcafc61d0eb7/af88de68c1364cabb549e8fb28e69017/preprocess/SubTool-6-10464815.OBJ"
    },
    {
      "mesh": 2,
      "name": "Object_7"
    },
    {
      "children": [
        9
      ],
      "name": "/sketchfab-data/processing/models/ca9c3c1a78cc428db619ac1a094442be/b688fe0758d7477eade4bcafc61d0eb7/af88de68c1364cabb549e8fb28e69017/preprocess/SubTool-5-9750537.OBJ"
    },
    {
      "mesh": 3,
      "name": "Object_9"
    },
    {
      "children": [
        11
      ],
      "name": "/sketchfab-data/processing/models/ca9c3c1a78cc428db619ac1a094442be/b688fe0758d7477eade4bcafc61d0eb7/af88de68c1364cabb549e8fb28e69017/preprocess/SubTool-4-9750537.OBJ"
    },
    {
      "mesh": 4,
      "name": "Object_11"
    },
    {
      "children": [
        13
      ],
      "name": "/sketchfab-data/processing/models/ca9c3c1a78cc428db619ac1a094442be/b688fe0758d7477eade4bcafc61d0eb7/af88de68c1364cabb549e8fb28e69017/preprocess/SubTool-3-9750537.OBJ"
    },
    {
      "mesh": 5,
      "name": "Object_13"
    },
    {
      "children": [
        15
      ],
      "name": "/sketchfab-data/processing/models/ca9c3c1a78cc428db619ac1a094442be/b688fe0758d7477eade4bcafc61d0eb7/af88de68c1364cabb549e8fb28e69017/preprocess/SubTool-2-9750537.OBJ"
    },
    {
      "mesh": 6,
      "name": "Object_15"
    },
    {
      "children": [
        17
      ],
      "name": "/sketchfab-data/processing/models/ca9c3c1a78cc428db619ac1a094442be/b688fe0758d7477eade4bcafc61d0eb7/af88de68c1364cabb549e8fb28e69017/preprocess/SubTool-1-10233600.OBJ"
    },
    {
      "mesh": 7,
      "name": "Object_17"
    },
    {
      "children": [
        19
      ],
      "name": "/sketchfab-data/processing/models/ca9c3c1a78cc428db619ac1a094442be/b688fe0758d7477eade4bcafc61d0eb7/af88de68c1364cabb549e8fb28e69017/preprocess/SubTool-0-10233600.OBJ"
    },
    {
      "mesh": 8,
      "name": "Object_19"
    }
  ],
  "scene": 0,
  "scenes": [
    {
      "name": "Sketchfab_Scene",
      "nodes": [
        0
      ]
    }
  ]
}
