{
  "accessors": [
    {
      "bufferView": 2,
      "componentType": 5126,
      "count": 27474,
      "max": [
        0.8169549703598022,
        0.6168360114097595,
        5.579391002655029
      ],
      "min": [
        -1.0971139669418335,
        -0.5578719973564148,
        0.5002930164337158
      ],
      "type": "VEC3"
    },
    {
      "bufferView": 2,
      "byteOffset": 329688,
      "componentType": 5126,
      "count": 27474,
      "max": [
        0.9999290108680725,
        0.9998595118522644,
        0.9998803734779358
      ],
      "min": [
        -0.9999871253967285,
        -0.9999715089797974,
        -0.9999992251396179
      ],
      "type": "VEC3"
    },
    {
      "bufferView": 3,
      "componentType": 5126,
      "count": 27474,
      "max": [
        0.999976396560669,
        0.9990527033805847,
        0.9999952912330627,
        1.0
      ],
      "min": [
        -0.9998676776885986,
        -0.9999980330467224,
        -0.9999493360519409,
        1.0
      ],
      "type": "VEC4"
    },
    {
      "bufferView": 1,
      "componentType": 5126,
      "count": 27474,
      "max": [
        0.9980400204658508,
        0.9556800127029419
      ],
      "min": [
        0.0019499999471008778,
        0.0019499999471008778
      ],
      "type": "VEC2"
    },
    {
      "bufferView": 0,
      "componentType": 5125,
      "count": 158592,
      "type": "SCALAR"
    }
  ],
  "asset": {
    "extras": {
      "author": "gaelkerchy (https://sketchfab.com/gaelkerchy)",
      "license": "CC-BY-NC-4.0 (http://creativecommons.org/licenses/by-nc/4.0/)",
      "source": "https://sketchfab.com/3d-models/spiderman-toy-32304ccc8e6b416c82007ef94b211680",
      "title": "Spiderman toy"
    },
    "generator": "Sketchfab-12.68.0",
    "version": "2.0"
  },
  "bufferViews": [
    {
      "buffer": 0,
      "byteLength": 634368,
      "name": "floatBufferViews",
      "target": 34963
    },
    {
      "buffer": 0,
      "byteLength": 219792,
      "byteOffset": 634368,
      "byteStride": 8,
      "name": "floatBufferViews",
      "target": 34962
    },
    {
      "buffer": 0,
      "byteLength": 659376,
      "byteOffset": 854160,
      "byteStride": 12,
      "name": "floatBufferViews",
      "target": 34962
    },
    {
      "buffer": 0,
      "byteLength": 439584,
      "byteOffset": 1513536,
      "byteStride": 16,
      "name": "floatBufferViews",
      "target": 34962
    }
  ],
  "buffers": [
    {
      "byteLength": 1953120,
      "uri": "scene.bin"
    }
  ],
  "images": [
    {
      "uri": "textures/spidermanStatue_003_bodySculptdefaultMat_baseColor.jpeg"
    },
    {
      "uri": "textures/spidermanStatue_003_bodySculptdefaultMat_metallicRoughness.png"
    },
    {
      "uri": "textures/spidermanStatue_003_bodySculptdefaultMat_normal.png"
    }
  ],
  "materials": [
    {
      "doubleSided": true,
      "name": "spidermanStatue_003_bodySculptdefaultMat",
      "normalTexture": {
        "index": 2
      },
      "occlusionTexture": {
        "index": 1,
        "strength": 0.45
      },
      "pbrMetallicRoughness": {
        "baseColorTexture": {
          "index": 0
        },
        "metallicFactor": 0.8,
        "metallicRoughnessTexture": {
          "index": 1
        }
      }
    }
  ],
  "meshes": [
    {
      "name": "Object_0",
      "primitives": [
        {
          "attributes": {
            "NORMAL": 1,
            "POSITION": 0,
            "TANGENT": 2,
            "TEXCOORD_0": 3
          },
          "indices": 4,
          "material": 0,
          "mode": 4
        }
      ]
    }
  ],
  "nodes": [
    {
      "children": [
        1
      ],
      "matrix": [
        1.0,
        0.0,
        0.0,
        0.0,
        0.0,
        2.220446049250313e-16,
        -1.0,
        0.0,
        0.0,
        1.0,
        2.220446049250313e-16,
        0.0,
        0.0,
        0.0,
        0.0,
        1.0
      ],
      "name": "Sketchfab_model"
    },
    {
      "children": [
        2
      ],
      "name": "spidermanStatue_005.obj.cleaner"
    },
    {
      "mesh": 0,
      "name": "Object_2"
    }
  ],
  "samplers": [
    {
      "magFilter": 9729,
      "minFilter": 9987,
      "wrapS": 10497,
      "wrapT": 10497
    }
  ],
  "scene": 0,
  "scenes": [
    {
      "name": "Sketchfab_Scene",
      "nodes": [
        0
      ]
    }
  ],
  "textures": [
    {
      "sampler": 0,
      "source": 0
    },
    {
      "sampler": 0,
      "source": 1
    },
    {
      "sampler": 0,
      "source": 2
    }
  ]
}
